<svg width="58" height="58" viewBox="0 0 58 58" fill="none" xmlns="http://www.w3.org/2000/svg">
<g filter="url(#filter0_d_3809_171)">
<circle opacity="0.1" cx="29" cy="25" r="25" fill="#212353"/>
<path fill-rule="evenodd" clip-rule="evenodd" d="M28.9095 21.6592L28.8699 21.0076C28.7511 19.3187 29.7938 17.7761 31.4438 17.1777C32.051 16.9649 33.0805 16.9383 33.7537 17.1245C34.0176 17.2043 34.5193 17.4702 34.8756 17.7096L35.5224 18.1485L36.2351 17.9224C36.6311 17.8027 37.1591 17.6032 37.3966 17.4702C37.621 17.3506 37.819 17.284 37.819 17.324C37.819 17.55 37.3307 18.3213 36.9215 18.7468C36.3671 19.3453 36.5255 19.3985 37.6475 18.9995C38.3206 18.7734 38.3338 18.7734 38.2018 19.0261C38.1226 19.1591 37.7134 19.6245 37.2778 20.0501C36.5387 20.7815 36.4991 20.8613 36.4991 21.473C36.4991 22.4172 36.0503 24.3853 35.6015 25.4624C34.77 27.4838 32.9881 29.5715 31.2062 30.6221C28.6984 32.0982 25.3589 32.4705 22.5475 31.6062C21.6103 31.3136 20 30.5689 20 30.436C20 30.396 20.4883 30.3428 21.0824 30.3296C22.3231 30.303 23.5638 29.9572 24.6197 29.3455L25.3326 28.92L24.5141 28.6407C23.3526 28.2417 22.3099 27.3242 22.0459 26.4598C21.9667 26.1805 21.9931 26.1672 22.7322 26.1672L23.4978 26.1539L22.851 25.8481C22.0855 25.4624 21.3859 24.8108 21.0427 24.1459C20.7919 23.6672 20.4752 22.457 20.5676 22.364C20.5939 22.3241 20.8712 22.4038 21.188 22.5102C22.0987 22.8427 22.2175 22.7629 21.6895 22.2044C20.6995 21.1937 20.396 19.691 20.8712 18.2681L21.0956 17.6298L21.9667 18.4942C23.7486 20.2362 25.8473 21.2735 28.2496 21.5794L28.9095 21.6592Z" fill="white"/>
</g>
<defs>
<filter id="filter0_d_3809_171" x="0" y="0" width="58" height="58" filterUnits="userSpaceOnUse" color-interpolation-filters="sRGB">
<feFlood flood-opacity="0" result="BackgroundImageFix"/>
<feColorMatrix in="SourceAlpha" type="matrix" values="0 0 0 0 0 0 0 0 0 0 0 0 0 0 0 0 0 0 127 0" result="hardAlpha"/>
<feOffset dy="4"/>
<feGaussianBlur stdDeviation="2"/>
<feComposite in2="hardAlpha" operator="out"/>
<feColorMatrix type="matrix" values="0 0 0 0 0 0 0 0 0 0 0 0 0 0 0 0 0 0 0.25 0"/>
<feBlend mode="normal" in2="BackgroundImageFix" result="effect1_dropShadow_3809_171"/>
<feBlend mode="normal" in="SourceGraphic" in2="effect1_dropShadow_3809_171" result="shape"/>
</filter>
</defs>
</svg>
